<svg width="101" height="16" viewBox="0 0 101 16" fill="none" xmlns="http://www.w3.org/2000/svg">
<path id="Line 7" d="M100.707 8.70711C101.098 8.31658 101.098 7.68342 100.707 7.29289L94.3431 0.928932C93.9526 0.538408 93.3195 0.538408 92.9289 0.928932C92.5384 1.31946 92.5384 1.95262 92.9289 2.34315L98.5858 8L92.9289 13.6569C92.5384 14.0474 92.5384 14.6805 92.9289 15.0711C93.3195 15.4616 93.9526 15.4616 94.3431 15.0711L100.707 8.70711ZM0 9H3.125V7H0V9ZM9.375 9H15.625V7H9.375V9ZM21.875 9H28.125V7H21.875V9ZM34.375 9H40.625V7H34.375V9ZM46.875 9H53.125V7H46.875V9ZM59.375 9H65.625V7H59.375V9ZM71.875 9H78.125V7H71.875V9ZM84.375 9H90.625V7H84.375V9ZM96.875 9H100V7H96.875V9Z" fill="#000024"/>
</svg>
